<?xml version="1.0" encoding="UTF-8" standalone="no"?>
<!-- Created with Inkscape (http://www.inkscape.org/) -->

<svg
   xmlns:dc="http://purl.org/dc/elements/1.1/"
   xmlns:cc="http://creativecommons.org/ns#"
   xmlns:rdf="http://www.w3.org/1999/02/22-rdf-syntax-ns#"
   xmlns:svg="http://www.w3.org/2000/svg"
   xmlns="http://www.w3.org/2000/svg"
   xmlns:sodipodi="http://sodipodi.sourceforge.net/DTD/sodipodi-0.dtd"
   xmlns:inkscape="http://www.inkscape.org/namespaces/inkscape"
   width="240"
   height="240"
   id="svg2985"
   version="1.1"
   inkscape:version="0.48.4 r9939"
   sodipodi:docname="clockface.svg"
   inkscape:export-filename="C:\Documents and Settings\ee22913\omate-clockface\clockface.png"
   inkscape:export-xdpi="220"
   inkscape:export-ydpi="220">
  <title
     id="title3896">Omate Clockface studio</title>
  <defs
     id="defs2987" />
  <sodipodi:namedview
     id="base"
     pagecolor="#ffffff"
     bordercolor="#666666"
     borderopacity="1.0"
     inkscape:pageopacity="0"
     inkscape:pageshadow="2"
     inkscape:zoom="2.8665636"
     inkscape:cx="122.52284"
     inkscape:cy="114.58155"
     inkscape:current-layer="layer1"
     showgrid="true"
     inkscape:document-units="px"
     inkscape:grid-bbox="true"
     inkscape:window-width="1680"
     inkscape:window-height="1003"
     inkscape:window-x="-4"
     inkscape:window-y="-4"
     inkscape:window-maximized="1" />
  <metadata
     id="metadata2990">
    <rdf:RDF>
      <cc:Work
         rdf:about="">
        <dc:format>image/svg+xml</dc:format>
        <dc:type
           rdf:resource="http://purl.org/dc/dcmitype/StillImage" />
        <dc:title>Omate Clockface studio</dc:title>
        <dc:creator>
          <cc:Agent>
            <dc:title>Piero Ottuzzi</dc:title>
          </cc:Agent>
        </dc:creator>
        <cc:license
           rdf:resource="http://choosealicense.com/licenses/mit/" />
      </cc:Work>
    </rdf:RDF>
  </metadata>
  <g
     inkscape:groupmode="layer"
     id="layer2"
     inkscape:label="Background"
     style="display:inline">
    <rect
       style="fill:#000000"
       id="rect3032"
       width="240"
       height="240"
       x="0"
       y="9.5164761e-015" />
  </g>
  <g
     id="layer1"
     inkscape:label="Layer 1"
     inkscape:groupmode="layer"
     transform="translate(0,176)">
    <rect
       style="fill:#ffbb33"
       id="rect4220-7-6"
       width="188.15837"
       height="0.1"
       x="31.126198"
       y="2.7825089" />
    <rect
       style="fill:#ffbb33"
       id="rect4220-7"
       width="188.15837"
       height="0.1"
       x="45.396957"
       y="-56.563591" />
    <rect
       style="fill:#ffbb33"
       id="rect4156"
       width="195.46725"
       height="0.1"
       x="18.924702"
       y="-63.792404" />
    <rect
       style="fill:#ffbb33"
       id="rect4220"
       width="188.15837"
       height="0.1"
       x="33.195168"
       y="-107.7924" />
    <rect
       style="fill:#9933cc"
       id="rect4156-1-8"
       width="230.18182"
       height="0.1"
       x="-163.40746"
       y="-202.03574"
       transform="matrix(0,1,-1,0,0,0)" />
    <rect
       style="fill:#9933cc"
       id="rect4156-1-8-9"
       width="230.18182"
       height="0.1"
       x="-159.26526"
       y="-120.36365"
       transform="matrix(0,1,-1,0,0,0)" />
    <rect
       style="fill:#9933cc"
       id="rect4156-1"
       width="230.18182"
       height="0.1"
       x="-178.77437"
       y="-48.095734"
       transform="matrix(0,1,-1,0,0,0)" />
    <text
       xml:space="preserve"
       style="font-size:60.52458191000000200px;font-style:normal;font-variant:normal;font-weight:bold;font-stretch:normal;line-height:125%;letter-spacing:0px;word-spacing:0px;fill:#99cc00;fill-opacity:1;stroke:none;font-family:Roboto;-inkscape-font-specification:Roboto Bold"
       x="43.834461"
       y="-63.140362"
       id="text2990"
       sodipodi:linespacing="125%"
       transform="scale(0.99133277,1.008743)"><tspan
         sodipodi:role="line"
         id="tspan2992"
         x="43.834461"
         y="-63.140362">12</tspan></text>
    <text
       xml:space="preserve"
       style="font-size:40px;font-style:normal;font-variant:normal;font-weight:normal;font-stretch:normal;line-height:125%;letter-spacing:0px;word-spacing:0px;fill:#669900;fill-opacity:1;stroke:none;font-family:Roboto;-inkscape-font-specification:Roboto"
       x="107.67145"
       y="-67.339851"
       id="text2994"
       sodipodi:linespacing="125%"><tspan
         sodipodi:role="line"
         id="tspan2996"
         x="107.67145"
         y="-67.339851"
         style="font-size:64px;fill:#669900">|</tspan></text>
    <text
       xml:space="preserve"
       style="font-size:60.92790604000000300px;font-style:normal;font-variant:normal;font-weight:normal;font-stretch:normal;line-height:125%;letter-spacing:0px;word-spacing:0px;fill:#99cc00;fill-opacity:1;stroke:none;font-family:Roboto;-inkscape-font-specification:Roboto"
       x="119.30636"
       y="-62.776936"
       id="text2998"
       sodipodi:linespacing="125%"
       transform="scale(0.98477043,1.0154651)"><tspan
         sodipodi:role="line"
         id="tspan3000"
         x="119.30636"
         y="-62.776936">37</tspan></text>
    <path
       id="path4099"
       d="m 102.94575,-32.297317 c 1.79515,2.325493 2.85729,5.15212 2.85729,8.211415 l 0,0 c 0,6.236713 -4.3915,11.526048 -10.507359,13.488817 -0.03541,-1.594079 -0.569098,-3.173839 -1.603703,-4.542409 4.005979,-1.344705 6.865912,-4.838314 6.865912,-8.946408 l 0,0 0,0 c 0,-5.270244 -4.695733,-9.545382 -10.488995,-9.545382 -2.099369,0 -4.042695,0.57511 -5.683113,1.540386 -1.614194,-6.342906 -7.83231,-11.084574 -15.294838,-11.084574 -8.689894,0 -15.734123,6.409723 -15.734123,14.316879 0,1.675214 0.333068,3.276452 0.915278,4.772691 h 0.01967 c 1.278504,3.269293 3.796173,6.002852 7.073076,7.689998 l -0.07474,0.06801 c -1.286372,1.16931 -2.092812,2.60589 -2.454727,4.11048 -4.918634,-2.514014 -8.590235,-6.784379 -10.033961,-11.868488 l 0,0 c -0.432724,-1.528454 -0.687114,-3.122533 -0.687114,-4.772691 0,-10.541681 9.39143,-19.088377 20.977954,-19.088377 2.625196,0 5.132374,0.44744 7.446794,1.249252 2.145263,-5.586435 7.971305,-9.601461 14.842445,-9.601461 0.990021,0 1.955127,0.09307 2.894007,0.252953 -0.173089,0.686074 -0.272747,1.399591 -0.272747,2.133393 0,5.271437 4.697026,9.544188 10.490314,9.544188 0.80644,0 1.58928,-0.09069 2.34327,-0.24818 0.17571,0.855505 0.27799,1.73368 0.27799,2.634525 -10e-4,3.740597 -1.58928,7.136366 -4.16857,9.684983 z M 89.035602,-51.277115 c -3.80273,0.792267 -6.785906,3.472133 -7.768057,6.890573 l 0,0 c 2.513733,1.637033 4.617036,3.76088 6.135505,6.229554 0.870694,-0.134828 1.75319,-0.2446 2.665845,-0.2446 3.432947,0 6.598391,1.013003 9.185559,2.709695 1.125106,-1.168116 1.947286,-2.586798 2.341986,-4.154627 -6.365012,-1.079822 -11.375436,-5.637742 -12.560838,-11.430595 z m -21.255945,35.793988 2.781238,2.530719 c 1.536827,1.398399 1.536827,3.6630409 0,5.0614389 -1.535516,1.398398 -4.025649,1.398398 -5.562476,0 -1.535516,-1.398398 -1.535516,-3.6630399 0,-5.0614389 l 2.781238,-2.530719 z m 9.177691,9.5429949 2.781238,2.530719 c 1.536827,1.3984 1.536827,3.66542723 0,5.0614393 -1.535516,1.3983984 -4.025648,1.3983984 -5.562475,0 -1.535517,-1.39601207 -1.535517,-3.6630393 0,-5.0614393 l 2.781237,-2.530719 z m 9.177689,-9.5429949 2.781237,2.530719 c 1.536828,1.398399 1.536828,3.6630409 0,5.0614389 -1.535516,1.398398 -4.025648,1.398398 -5.562475,0 -1.535516,-1.398398 -1.535516,-3.6630399 0,-5.0614389 l 2.781238,-2.530719 z"
       clip-rule="evenodd"
       inkscape:connector-curvature="0"
       style="fill:#0099cc;fill-rule:evenodd" />
    <path
       sodipodi:type="arc"
       style="fill:#669900"
       id="path4108"
       sodipodi:cx="73.454544"
       sodipodi:cy="20"
       sodipodi:rx="2.909091"
       sodipodi:ry="2.909091"
       d="m 76.363635,20 c 0,1.606647 -1.302444,2.909091 -2.909091,2.909091 -1.606647,0 -2.909091,-1.302444 -2.909091,-2.909091 0,-1.606647 1.302444,-2.909091 2.909091,-2.909091 1.606647,0 2.909091,1.302444 2.909091,2.909091 z"
       transform="matrix(1.375,0,0,1.375,88.909098,-95.192398)" />
    <path
       sodipodi:type="arc"
       style="fill:#669900"
       id="path4158"
       sodipodi:cx="32.909092"
       sodipodi:cy="12.545455"
       sodipodi:rx="1.6363636"
       sodipodi:ry="1.6363636"
       d="m 34.545456,12.545455 c 0,0.903739 -0.732625,1.636364 -1.636364,1.636364 -0.903739,0 -1.636364,-0.732625 -1.636364,-1.636364 0,-0.903739 0.732625,-1.636364 1.636364,-1.636364 0.903739,0 1.636364,0.732625 1.636364,1.636364 z"
       transform="matrix(1.2222222,0,0,1.2222222,159.68686,-81.025732)" />
    <path
       sodipodi:type="arc"
       style="fill:#669900"
       id="path4158-7"
       sodipodi:cx="32.909092"
       sodipodi:cy="12.545455"
       sodipodi:rx="1.6363636"
       sodipodi:ry="1.6363636"
       d="m 34.545456,12.545455 c 0,0.903739 -0.732625,1.636364 -1.636364,1.636364 -0.903739,0 -1.636364,-0.732625 -1.636364,-1.636364 0,-0.903739 0.732625,-1.636364 1.636364,-1.636364 0.903739,0 1.636364,0.732625 1.636364,1.636364 z"
       transform="matrix(1.2222222,0,0,1.2222222,159.68687,-86.025732)" />
    <path
       sodipodi:type="arc"
       style="fill:#000000;stroke:#669900;stroke-width:0.21825337;stroke-opacity:1"
       id="path4158-14"
       sodipodi:cx="32.909092"
       sodipodi:cy="12.545455"
       sodipodi:rx="1.6363636"
       sodipodi:ry="1.6363636"
       d="m 34.545456,12.545455 a 1.6363636,1.6363636 0 1 1 -3.272728,0 1.6363636,1.6363636 0 1 1 3.272728,0 z"
       transform="matrix(1.1458099,0,0,1.14581,162.20144,-120.06671)" />
    <path
       sodipodi:type="arc"
       style="fill:#669900"
       id="path4158-23"
       sodipodi:cx="32.909092"
       sodipodi:cy="12.545455"
       sodipodi:rx="1.6363636"
       sodipodi:ry="1.6363636"
       d="m 34.545456,12.545455 c 0,0.903739 -0.732625,1.636364 -1.636364,1.636364 -0.903739,0 -1.636364,-0.732625 -1.636364,-1.636364 0,-0.903739 0.732625,-1.636364 1.636364,-1.636364 0.903739,0 1.636364,0.732625 1.636364,1.636364 z"
       transform="matrix(1.2222222,0,0,1.2222222,159.68687,-91.025728)" />
    <path
       sodipodi:type="arc"
       style="fill:#669900"
       id="path4158-22"
       sodipodi:cx="32.909092"
       sodipodi:cy="12.545455"
       sodipodi:rx="1.6363636"
       sodipodi:ry="1.6363636"
       d="m 34.545456,12.545455 c 0,0.903739 -0.732625,1.636364 -1.636364,1.636364 -0.903739,0 -1.636364,-0.732625 -1.636364,-1.636364 0,-0.903739 0.732625,-1.636364 1.636364,-1.636364 0.903739,0 1.636364,0.732625 1.636364,1.636364 z"
       transform="matrix(1.2222222,0,0,1.2222222,159.68687,-96.025728)" />
    <path
       sodipodi:type="arc"
       style="fill:#669900"
       id="path4108-1"
       sodipodi:cx="73.454544"
       sodipodi:cy="20"
       sodipodi:rx="2.909091"
       sodipodi:ry="2.909091"
       d="m 76.363635,20 c 0,1.606647 -1.302444,2.909091 -2.909091,2.909091 -1.606647,0 -2.909091,-1.302444 -2.909091,-2.909091 0,-1.606647 1.302444,-2.909091 2.909091,-2.909091 1.606647,0 2.909091,1.302444 2.909091,2.909091 z"
       transform="matrix(1.375,0,0,1.375,88.909098,-104.1924)" />
    <path
       sodipodi:type="arc"
       style="fill:#669900"
       id="path4108-6"
       sodipodi:cx="73.454544"
       sodipodi:cy="20"
       sodipodi:rx="2.909091"
       sodipodi:ry="2.909091"
       d="m 76.363635,20 c 0,1.606647 -1.302444,2.909091 -2.909091,2.909091 -1.606647,0 -2.909091,-1.302444 -2.909091,-2.909091 0,-1.606647 1.302444,-2.909091 2.909091,-2.909091 1.606647,0 2.909091,1.302444 2.909091,2.909091 z"
       transform="matrix(1.375,0,0,1.375,88.909098,-113.1924)" />
    <path
       sodipodi:type="arc"
       style="fill:#000000;stroke:#669900;stroke-width:0.85227275;stroke-opacity:1"
       id="path4108-8"
       sodipodi:cx="73.454544"
       sodipodi:cy="20"
       sodipodi:rx="2.909091"
       sodipodi:ry="2.909091"
       d="m 76.363635,20 a 2.909091,2.909091 0 1 1 -5.818182,0 2.909091,2.909091 0 1 1 5.818182,0 z"
       transform="matrix(1.1993185,0,0,1.1993185,101.90028,-118.67837)" />
    <path
       sodipodi:type="arc"
       style="fill:#000000;stroke:#669900;stroke-width:0.72727275;stroke-opacity:1"
       id="path4108-5"
       sodipodi:cx="73.454544"
       sodipodi:cy="20"
       sodipodi:rx="2.909091"
       sodipodi:ry="2.909091"
       d="m 76.363635,20 a 2.909091,2.909091 0 1 1 -5.818182,0 2.909091,2.909091 0 1 1 5.818182,0 z"
       transform="matrix(1.2222222,0,0,1.2222222,100.13123,-128.13644)" />
    <text
       xml:space="preserve"
       style="font-size:20px;font-style:normal;font-variant:normal;font-weight:normal;font-stretch:normal;line-height:125%;letter-spacing:0px;word-spacing:0px;fill:#ff8800;fill-opacity:1;stroke:none;font-family:Roboto;-inkscape-font-specification:Roboto"
       x="119.15302"
       y="-115.70134"
       id="text4328"
       sodipodi:linespacing="125%"><tspan
         sodipodi:role="line"
         id="tspan4330"
         x="119.15302"
         y="-115.70134"
         style="font-style:normal;font-variant:normal;font-weight:normal;font-stretch:normal;font-family:Roboto;-inkscape-font-specification:Roboto;fill:#ff8800">09/18/13</tspan></text>
    <text
       xml:space="preserve"
       style="font-size:28px;font-style:normal;font-variant:normal;font-weight:normal;font-stretch:normal;line-height:125%;letter-spacing:0px;word-spacing:0px;fill:#cc0000;fill-opacity:1;stroke:none;font-family:Roboto;-inkscape-font-specification:Roboto"
       x="148.8031"
       y="-0.44592667"
       id="text4332"
       sodipodi:linespacing="125%"><tspan
         sodipodi:role="line"
         id="tspan4334"
         x="148.8031"
         y="-0.44592667"
         style="font-size:28px;font-style:normal;font-variant:normal;font-weight:bold;font-stretch:normal;font-family:Roboto;-inkscape-font-specification:Roboto Bold;fill:#cc0000">23</tspan></text>
    <path
       id="path4454"
       d="m 140.32735,2.5495352 c -3.06839,0 -5.55617,-2.48777447 -5.55617,-5.5561703 0,-1.406406 0.52784,-2.687104 1.38904,-3.66638 V -18.283332 c 0,-2.30095 1.86619,-4.16713 4.16713,-4.16713 2.30026,0 4.16644,1.86618 4.16644,4.16713 v 11.6103169 c 0.8619,0.979276 1.38835,2.259974 1.38835,3.66638 0,3.06839583 -2.4864,5.5561703 -5.55479,5.5561703 z m 1.38904,-7.9487973 v -2.980192 -7.1271809 -2.777392 c 0,-0.766751 -0.62229,-1.389042 -1.38904,-1.389042 -0.76674,0 -1.38904,0.622291 -1.38904,1.389042 v 2.777392 7.1271809 2.980192 c -0.82649,0.481304 -1.38904,1.367513 -1.38904,2.392627 0,1.534198 1.24389,2.77808623 2.77808,2.77808623 1.5342,0 2.7774,-1.24388823 2.7774,-2.77808623 0,-1.025114 -0.56257,-1.911323 -1.38836,-2.392627 z m -1.38904,4.47619303 c -1.15013,0 -2.08356,-0.93343803 -2.08356,-2.08356603 0,-0.90635 0.58201,-1.668241 1.38903,-1.955772 V -15.549695 h 1.38906 v 10.5872879 c 0.80703,0.287531 1.38904,1.050116 1.38904,1.955772 0,1.150128 -0.93344,2.08356603 -2.08357,2.08356603 z"
       clip-rule="evenodd"
       inkscape:connector-curvature="0"
       style="fill-rule:evenodd;fill:#cc0000" />
    <path
       id="path4473"
       d="m 196.98022,-18.141735 c -1.34665,0 -2.43847,1.091826 -2.43847,2.438472 v 4.876332 c 0,1.3466459 1.09182,2.4378619 2.43847,2.4378619 1.34664,0 2.43847,-1.091216 2.43847,-2.4378619 h 2.43725 c 0,2.6932919 -2.18243,4.8763339 -4.87572,4.8763339 -2.69329,0 -4.87695,-2.183042 -4.87695,-4.8763339 v -4.876332 c 0,-2.693292 2.18366,-4.876334 4.87695,-4.876334 2.69329,0 4.87572,2.183042 4.87572,4.876334 h -2.43725 c 0,-1.346646 -1.09183,-2.438472 -2.43847,-2.438472 z m -11.58213,6.09557 c -2.35618,0 -4.26611,-1.910543 -4.26611,-4.266716 0,-2.356173 1.90993,-4.266716 4.26611,-4.266716 2.35678,0 4.26732,1.910543 4.26732,4.266716 0,2.356173 -1.90993,4.266716 -4.26732,4.266716 z m 0,-6.09557 c -1.00953,0 -1.82825,0.819327 -1.82825,1.828854 0,1.009527 0.81872,1.828854 1.82825,1.828854 1.01013,0 1.82885,-0.819327 1.82885,-1.828854 0,-1.009527 -0.81811,-1.828854 -1.82885,-1.828854 z"
       clip-rule="evenodd"
       inkscape:connector-curvature="0"
       style="fill-rule:evenodd;fill:#cc0000" />
    <text
       xml:space="preserve"
       style="font-size:16px;font-style:normal;font-variant:normal;font-weight:normal;font-stretch:normal;text-align:end;line-height:125%;letter-spacing:0px;word-spacing:0px;text-anchor:end;fill:#ff4444;fill-opacity:1;stroke:none;font-family:Roboto;-inkscape-font-specification:Roboto"
       x="202.63904"
       y="-46.028282"
       id="text4482"
       sodipodi:linespacing="125%"><tspan
         sodipodi:role="line"
         id="tspan4484"
         x="202.63904"
         y="-46.028282"
         style="font-size:14px;fill:#ff4444">Villafranca</tspan><tspan
         sodipodi:role="line"
         x="202.63904"
         y="-28.528282"
         id="tspan4486"
         style="font-size:14px;fill:#ff4444">di Verona</tspan></text>
    <flowRoot
       xml:space="preserve"
       id="flowRoot4488"
       style="font-size:20px;font-style:normal;font-variant:normal;font-weight:normal;font-stretch:normal;line-height:125%;letter-spacing:0px;word-spacing:0px;fill:#000000;fill-opacity:1;stroke:none;font-family:Roboto;-inkscape-font-specification:Roboto"
       transform="translate(0.90908813,-166.6924)"><flowRegion
         id="flowRegion4490"><rect
           id="rect4492"
           width="17.328224"
           height="51.984673"
           x="214.8046"
           y="138.31929" /></flowRegion><flowPara
         id="flowPara4494" /></flowRoot>    <path
       sodipodi:type="arc"
       style="fill:#000000;stroke:#669900;stroke-width:0.21825337;stroke-opacity:1"
       id="path4158-14-3"
       sodipodi:cx="32.909092"
       sodipodi:cy="12.545455"
       sodipodi:rx="1.6363636"
       sodipodi:ry="1.6363636"
       d="m 34.545456,12.545455 a 1.6363636,1.6363636 0 1 1 -3.272728,0 1.6363636,1.6363636 0 1 1 3.272728,0 z"
       transform="matrix(1.1458099,0,0,1.14581,162.20144,-115.06671)" />
    <path
       sodipodi:type="arc"
       style="fill:#000000;stroke:#669900;stroke-width:0.21825337;stroke-opacity:1"
       id="path4158-14-1"
       sodipodi:cx="32.909092"
       sodipodi:cy="12.545455"
       sodipodi:rx="1.6363636"
       sodipodi:ry="1.6363636"
       d="m 34.545456,12.545455 a 1.6363636,1.6363636 0 1 1 -3.272728,0 1.6363636,1.6363636 0 1 1 3.272728,0 z"
       transform="matrix(1.1458099,0,0,1.14581,162.20144,-110.06671)" />
    <path
       sodipodi:type="arc"
       style="fill:#000000;stroke:#669900;stroke-width:0.21825337;stroke-opacity:1"
       id="path4158-14-6"
       sodipodi:cx="32.909092"
       sodipodi:cy="12.545455"
       sodipodi:rx="1.6363636"
       sodipodi:ry="1.6363636"
       d="m 34.545456,12.545455 a 1.6363636,1.6363636 0 1 1 -3.272728,0 1.6363636,1.6363636 0 1 1 3.272728,0 z"
       transform="matrix(1.1458099,0,0,1.14581,162.20144,-105.06671)" />
    <path
       sodipodi:type="arc"
       style="fill:#000000;stroke:#669900;stroke-width:0.21825337;stroke-opacity:1"
       id="path4158-14-8"
       sodipodi:cx="32.909092"
       sodipodi:cy="12.545455"
       sodipodi:rx="1.6363636"
       sodipodi:ry="1.6363636"
       d="m 34.545456,12.545455 a 1.6363636,1.6363636 0 1 1 -3.272728,0 1.6363636,1.6363636 0 1 1 3.272728,0 z"
       transform="matrix(1.1458099,0,0,1.14581,162.20144,-100.06671)" />
  </g>
</svg>
